<?xml version="1.0" encoding="UTF-8"?>
<svg width="64px" height="65px" viewBox="0 0 64 65" version="1.1" xmlns="http://www.w3.org/2000/svg" xmlns:xlink="http://www.w3.org/1999/xlink">
    <title>icon4</title>
    <defs>
        <rect id="path-1" x="0" y="0" width="350" height="270" rx="30"></rect>
    </defs>
    <g id="页面-1" stroke="none" stroke-width="1" fill="none" fill-rule="evenodd">
        <g id="特点" transform="translate(-197.000000, -403.000000)">
            <rect fill="#none" x="0" y="0" width="1668" height="1081"></rect>
            <g id="编组-45备份" transform="translate(54.000000, 364.000000)">
                <mask id="mask-2" fill="white">
                    <use xlink:href="#path-1"></use>
                </mask>
                <rect stroke-opacity="0.2" stroke="#FFFFFF" x="0.5" y="0.5" width="349" height="269" rx="30"></rect>
            </g>
            <g id="编组-9备份" transform="translate(197.000000, 403.910000)" stroke="#4FE117" stroke-width="2">
                <g id="编组" transform="translate(7.000000, 2.000000)">
                    <path d="M49.9153943,25.9408885 C49.9153943,26.2046559 49.9153943,26.4683032 49.8275519,26.7321906 C49.7849507,26.9485566 49.7304692,27.1624026 49.6642273,27.3727685 C49.6063857,27.6234555 49.5351037,27.8707824 49.4507413,28.1137892 C49.3753792,28.3273952 49.2874168,28.5282808 49.1994543,28.7292864 C49.1116119,28.930172 48.973368,29.2442208 48.8352441,29.5079881 C48.6970003,29.7717555 48.4333529,30.2114478 48.1946662,30.5631776 L48.0690227,30.7263822 C47.8155757,31.0841122 47.543048,31.4279218 47.2525199,31.756371 L47.0893154,31.8944948 C46.7627862,32.2462246 46.4110564,32.5853541 46.0342459,32.9244836 C45.6574354,33.2636131 45.5317919,33.3515755 45.2681445,33.5650615 L44.5646848,34.1177969 C44.2883171,34.3186825 43.9743883,34.5196882 43.6728199,34.7079734 C43.3713715,34.8964987 43.0574427,35.122585 42.7183133,35.3234706 C41.957612,35.7636429 41.1733901,36.161934 40.3694876,36.5167839 L39.6535476,36.8182324 C39.0128497,37.0819997 38.3973525,37.3332868 37.6940129,37.5592531 L36.9655925,37.8105401 L35.7095174,38.1747503 C35.3828683,38.2627127 35.0563392,38.3631555 34.7298101,38.4385176 C34.4031609,38.5138797 33.8128645,38.6395232 33.3482115,38.7399661 L32.4061852,38.9283713 C31.4640388,39.0915759 30.5220125,39.2172194 29.5675059,39.3176622 L28.6756409,39.3931443 C28.1104251,39.3931443 27.5578097,39.4809868 26.9924739,39.5061875 L25.8997234,39.5061875 L24.5055244,39.5061875 L23.3624925,39.5061875 L22.1065374,39.4308254 L20.9384248,39.4308254 C20.5238132,39.4308254 20.1094416,39.3428629 19.6823497,39.2801011 C19.2552578,39.2172194 18.941329,39.1796583 18.5645185,39.1293769 L17.3083234,38.9032906 L16.1904921,38.6646039 C15.6755578,38.5515608 15.1605034,38.4134369 14.645569,38.2877934 L13.7915051,38.0492268 C12.8745595,37.7853394 11.9702142,37.483891 11.10355,37.1447615 C10.6764821,36.9815569 10.2619665,36.7931517 9.84746293,36.6046264 L9.20688504,36.3283787 C8.57887149,36.0269303 7.95083394,35.7128815 7.3730538,35.373752 C2.44934025,32.5350727 -0.0125129295,28.7921681 0,25.0741043 L0,35.3109903 C0,39.0790955 2.512138,42.7718387 7.3730538,45.610518 C7.9633983,45.9497675 8.62910489,46.2638162 9.20688504,46.5651447 L9.84746293,46.8539927 C10.2242855,47.0173173 10.5885076,47.1932422 10.9779065,47.3439664 L11.1160304,47.3439664 C11.9534138,47.687176 12.8452787,47.9886244 13.7915051,48.2481917 C13.8648272,48.2790325 13.9404293,48.3042333 14.0175914,48.3235538 L14.645569,48.4868784 C15.1605034,48.6250022 15.6755578,48.7506457 16.2030925,48.8636889 L16.6175841,48.9642517 L17.2329613,49.0772948 L18.5645185,49.3033812 L19.0920532,49.3912236 L19.6823497,49.4665857 L20.9384248,49.6048296 L21.5412016,49.6048296 L22.0940571,49.6048296 L23.3500122,49.6801917 L23.9905901,49.6801917 L26.5027402,49.6801917 L26.9046315,49.6801917 C27.4740474,49.6801917 28.0392632,49.6425106 28.6002788,49.5671485 L29.2785378,49.5671485 L29.4795434,49.5671485 C30.4466504,49.4665857 31.3886767,49.3284619 32.3308231,49.1651373 L32.5191083,49.1651373 L33.3230108,48.9893324 C33.7751834,48.8888896 34.2398364,48.8009271 34.692129,48.687884 C35.1443017,48.5748408 35.3577876,48.5120791 35.6843167,48.4241166 C36.0109659,48.3362741 36.550981,48.1980303 36.9403918,48.0599064 L37.2167596,47.9845443 L37.6564518,47.8087394 C38.3347108,47.5826531 38.987769,47.3439664 39.6283469,47.0675987 L40.3318066,46.7661503 C41.1397892,46.4113004 41.9282112,46.0130092 42.6931125,45.5729569 L42.994561,45.397032 C43.2332476,45.2589082 43.4216529,45.108184 43.6477392,44.9574598 C43.8738255,44.8067355 44.2632364,44.5680489 44.5394841,44.3670433 C44.8158519,44.1660376 45.0042571,44.0028331 45.2429438,43.8144278 C45.4815104,43.6260226 45.7704785,43.3999362 46.0090452,43.1864503 C46.0564465,43.1372489 46.1068479,43.0911676 46.1597694,43.0482064 C46.4727381,42.7625984 46.7704665,42.46079 47.0516343,42.1438611 L47.2274392,41.9554559 L47.7046926,41.3902401 C47.8303361,41.2395159 47.9308989,41.0761913 48.043942,40.9254671 C48.0817431,40.8681055 48.1237443,40.813624 48.1694655,40.7622626 C48.3579908,40.4732945 48.5462761,40.1844464 48.7096006,39.8955983 C48.7440416,39.8352367 48.7734424,39.7723549 48.7975631,39.7070731 C48.9356869,39.4434257 49.0487301,39.1921387 49.1617733,38.9283713 C49.2432555,38.7826872 49.3145375,38.631603 49.3753792,38.4761987 C49.3753792,38.4761987 49.3753792,38.3757559 49.3753792,38.3128741 C49.4597416,38.0698673 49.5310236,37.8225404 49.5888652,37.5718534 C49.5888652,37.4086489 49.7019084,37.2327239 49.7271091,37.0693994 C49.7521898,36.9061948 49.7271091,36.9815569 49.7271091,36.9312755 C49.7271091,36.6675082 49.7897508,36.4037408 49.8149515,36.1399734 C49.8400322,35.876206 49.8149515,35.8008439 49.8149515,35.6375194 C49.8211917,35.5622773 49.8211917,35.4866752 49.8149515,35.4115531 L49.8149515,25.1746671 C49.8623528,25.4279942 49.8958338,25.6838413 49.9153943,25.9408885 Z" id="路径"></path>
                    <path d="M49.9153943,36.2606968 C49.9153943,36.5244642 49.9153943,36.7882315 49.8275519,37.0519989 C49.7849507,37.2683649 49.7304692,37.4822109 49.6642273,37.6925768 C49.6063857,37.9432638 49.5351037,38.1907107 49.4507413,38.4335975 C49.3753792,38.6472035 49.2874168,38.8480891 49.1994543,39.0490947 C49.1116119,39.2499803 48.973368,39.5641491 48.8352441,39.8277964 C48.6970003,40.0915638 48.4333529,40.5312561 48.1946662,40.8829859 L48.0690227,41.0461905 C47.8155757,41.4039205 47.543048,41.7477301 47.2525199,42.0761793 L47.0893154,42.2143031 C46.7627862,42.5660329 46.4110564,42.9051624 46.0342459,43.2442919 C45.6574354,43.5834214 45.5317919,43.6713838 45.2681445,43.8848698 L44.5646848,44.4376052 C44.2883171,44.6384908 43.9743883,44.8394965 43.6728199,45.0279017 C43.3713715,45.216307 43.0574427,45.4423933 42.7183133,45.6433989 C41.957612,46.0834512 41.1733901,46.4817423 40.3694876,46.8365923 L39.6535476,47.1380407 C39.0128497,47.401808 38.3973525,47.6530951 37.6940129,47.8791814 L36.9655925,48.1303484 L35.7095174,48.4946786 C35.3828683,48.582521 35.0563392,48.6829638 34.7298101,48.7583259 C34.4031609,48.833688 33.8128645,48.9593316 33.3482115,49.0597744 L32.4061852,49.2481796 C31.4640388,49.4115042 30.5220125,49.5370277 29.5675059,49.6374705 L28.6756409,49.7129526 C28.1104251,49.7129526 27.5578097,49.8009151 26.9924739,49.8259958 L25.8997234,49.8259958 L24.5055244,49.8259958 L23.3624925,49.8259958 L22.1065374,49.7506337 L20.9384248,49.7506337 C20.5238132,49.7506337 20.1094416,49.6626712 19.6823497,49.5999095 C19.2552578,49.5370277 18.941329,49.4994666 18.5645185,49.4491852 L17.3083234,49.2230989 L16.1904921,48.9844123 C15.6755578,48.8713691 15.1605034,48.7332452 14.645569,48.6076017 L13.7915051,48.3690351 C12.8745595,48.1052677 11.9702142,47.8038193 11.10355,47.4645698 C10.6764821,47.3013652 10.2619665,47.11296 9.84746293,46.9244347 L9.20688504,46.648187 C8.57887149,46.3467386 7.95083394,46.0328098 7.3730538,45.6935603 C2.44934025,42.854881 -0.0125129295,39.1119764 0,35.3939126 L0,45.6307986 C0,49.3989038 2.512138,53.091647 7.3730538,55.9303263 C7.9633983,56.2695758 8.62910489,56.5836246 9.20688504,56.885073 L9.84746293,57.173801 C10.2242855,57.3371256 10.5885076,57.5130505 10.9779065,57.6637747 L11.1160304,57.6637747 C11.9534138,58.0071043 12.8452787,58.3084327 13.7915051,58.568 C13.8648272,58.5988409 13.9404293,58.6240416 14.0175914,58.6433621 L14.645569,58.8068067 C15.1605034,58.9448105 15.6755578,59.070454 16.2030925,59.1834972 L16.6175841,59.28406 L17.2329613,59.3971032 L18.5645185,59.6231895 L19.0920532,59.7110319 L19.6823497,59.786394 L20.9384248,59.9246379 L21.5412016,59.9246379 L22.0940571,59.9246379 L23.3500122,60 L23.9905901,60 L26.5027402,60 L26.9046315,60 C27.4740474,60 28.0392632,59.9623189 28.6002788,59.8869568 L29.2785378,59.8869568 L29.4795434,59.8869568 C30.4466504,59.786394 31.3886767,59.6482702 32.3308231,59.4849456 L32.5191083,59.4849456 L33.3230108,59.3091407 C33.7751834,59.2086979 34.2398364,59.1207354 34.692129,59.0076923 C35.1443017,58.8946491 35.3577876,58.8318874 35.6843167,58.7439249 C36.0109659,58.6560825 36.550981,58.5178386 36.9403918,58.3797147 L37.2167596,58.3043526 L37.6564518,58.1285477 C38.3347108,57.9024614 38.987769,57.6637747 39.6283469,57.387407 L40.3318066,57.0859586 C41.1397892,56.7311087 41.9282112,56.3328175 42.6931125,55.8927653 L42.994561,55.7168403 C43.2332476,55.5787165 43.4216529,55.4279923 43.6477392,55.2772681 C43.8738255,55.1265438 44.2632364,54.8878572 44.5394841,54.6868516 C44.8158519,54.4858459 45.0042571,54.3226414 45.2429438,54.1342361 C45.4815104,53.9458309 45.7704785,53.7197445 46.0090452,53.5062586 C46.0564465,53.4570572 46.1068479,53.4109759 46.1597694,53.3680147 C46.4727381,53.0825267 46.7704665,52.7805983 47.0516343,52.4636695 L47.2274392,52.2752642 L47.7046926,51.7100484 C47.8303361,51.5593242 47.9308989,51.3959996 48.043942,51.2452754 C48.0817431,51.1879138 48.1237443,51.1334323 48.1694655,51.0820709 C48.3579908,50.7931028 48.5462761,50.5042547 48.7096006,50.2154066 C48.7440416,50.155045 48.7734424,50.0921632 48.7975631,50.0270014 C48.9356869,49.763234 49.0487301,49.511947 49.1617733,49.2481796 C49.2432555,49.1024956 49.3145375,48.9514113 49.3753792,48.796007 C49.3753792,48.796007 49.3753792,48.6955642 49.3753792,48.6326824 C49.4597416,48.3896756 49.5310236,48.1423487 49.5888652,47.8916617 C49.5888652,47.7284572 49.7019084,47.5525323 49.7271091,47.3892077 C49.7521898,47.2260031 49.7271091,47.3013652 49.7271091,47.2510838 C49.7271091,46.9873165 49.7897508,46.7235491 49.8149515,46.4597817 C49.8400322,46.1960144 49.8149515,46.1206522 49.8149515,45.9574477 C49.8211917,45.8820856 49.8211917,45.8064835 49.8149515,45.7313614 L49.8149515,35.4944754 C49.8623528,35.7479225 49.8958338,36.0036496 49.9153943,36.2606968 Z" id="路径"></path>
                    <path d="M49.9153943,15.2623902 C49.9153943,15.5262775 49.9153943,15.7899249 49.8275519,16.0536923 C49.7849507,16.2700583 49.7304692,16.4839043 49.6642273,16.6943902 C49.6063857,16.9450772 49.5351037,17.1924041 49.4507413,17.4352909 C49.3753792,17.6488968 49.2874168,17.8499024 49.1994543,18.0507881 C49.1116119,18.2517937 48.973368,18.5658424 48.8352441,18.8296098 C48.6970003,19.0933772 48.4333529,19.5330695 48.1946662,19.8846793 L48.0690227,20.0478838 C47.8155757,20.4056138 47.543048,20.7495435 47.2525199,21.0779926 L47.0893154,21.2161165 C46.7627862,21.5677263 46.4110564,21.9069758 46.0342459,22.2461053 C45.6574354,22.5851147 45.5317919,22.6730772 45.2681445,22.8865632 L44.5646848,23.4392986 C44.2883171,23.6403042 43.9743883,23.8413098 43.6728199,24.0295951 C43.3713715,24.2181204 43.0574427,24.4440867 42.7183133,24.6450923 C41.957612,25.0851446 41.1733901,25.4834357 40.3694876,25.8384056 L39.6535476,26.139854 C39.0128497,26.4036214 38.3973525,26.6547884 37.6940129,26.8808747 L36.9655925,27.1320418 L35.7095174,27.4963719 C35.3828683,27.5842144 35.0563392,27.6847772 34.7298101,27.7601393 C34.4031609,27.8355014 33.8128645,27.9610249 33.3482115,28.0615877 L32.4061852,28.249993 C31.4640388,28.4131976 30.5220125,28.5388411 29.5675059,28.6392839 L28.6756409,28.714766 C28.1104251,28.714766 27.5578097,28.8026084 26.9924739,28.8276891 L25.8997234,28.8276891 L24.5055244,28.8276891 L23.3624925,28.8276891 L22.1065374,28.752327 L20.9384248,28.752327 C20.5238132,28.752327 20.1094416,28.6643646 19.6823497,28.6016028 C19.2552578,28.5388411 18.941329,28.50116 18.5645185,28.4509986 L17.3083234,28.2249123 L16.1904921,27.9862256 C15.6755578,27.8731825 15.1605034,27.7349386 14.645569,27.6094151 L13.7915051,27.3707284 C12.8745595,27.1069611 11.9702142,26.8055126 11.10355,26.4663832 C10.6764821,26.3031786 10.2619665,26.1146533 9.84746293,25.9262481 L9.20688504,25.6498804 C8.57887149,25.3484319 7.95083394,25.0345032 7.3730538,24.6953737 C2.44934025,21.8566944 -0.0125129295,18.1136698 0,14.3957259 L0,24.6326119 C0,28.4007172 2.512138,32.0934604 7.3730538,34.9321397 C7.9633983,35.2712691 8.62910489,35.5853179 9.20688504,35.8867663 L9.84746293,36.1756144 C10.2242855,36.338939 10.5885076,36.5147439 10.9779065,36.6654681 L11.1160304,36.6654681 C11.9534138,37.0087977 12.8452787,37.3102461 13.7915051,37.5698134 C13.8648272,37.6005342 13.9404293,37.6257349 14.0175914,37.6451755 L14.645569,37.8085 C15.1605034,37.9466239 15.6755578,38.0722674 16.2030925,38.1853106 L16.6175841,38.2857534 L17.2329613,38.3989165 L18.5645185,38.6250028 L19.0920532,38.7128453 L19.6823497,38.7882074 L20.9384248,38.9264513 L21.5412016,38.9264513 L22.0940571,38.9264513 L23.3500122,39.0018134 L23.9905901,39.0018134 L26.5027402,39.0018134 L26.9046315,39.0018134 C27.4740474,39.0018134 28.0392632,38.9640123 28.6002788,38.8886502 L29.2785378,38.8886502 L29.4795434,38.8886502 C30.4466504,38.7882074 31.3886767,38.6500835 32.3308231,38.486759 L32.5191083,38.486759 L33.3230108,38.3109541 C33.7751834,38.2103913 34.2398364,38.1224288 34.692129,38.0095056 C35.1443017,37.8963425 35.3577876,37.8335807 35.6843167,37.7456183 C36.0109659,37.6577758 36.550981,37.519532 36.9403918,37.3815281 L37.2167596,37.306166 L37.6564518,37.1302411 C38.3347108,36.9041548 38.987769,36.6654681 39.6283469,36.3892204 L40.3318066,36.087772 C41.1397892,35.732922 41.9282112,35.3345109 42.6931125,34.8944586 L42.994561,34.7186537 C43.2332476,34.5804098 43.4216529,34.4296856 43.6477392,34.2789614 C43.8738255,34.1282372 44.2632364,33.8895505 44.5394841,33.6886649 C44.8158519,33.4876593 45.0042571,33.3244548 45.2429438,33.1359295 C45.4815104,32.9476442 45.7704785,32.7215579 46.0090452,32.5079519 C46.0564465,32.4587506 46.1068479,32.4126693 46.1597694,32.3697081 C46.4727381,32.0842201 46.7704665,31.7824117 47.0516343,31.4654828 L47.2274392,31.2769576 L47.7046926,30.7118618 C47.8303361,30.5611376 47.9308989,30.397813 48.043942,30.2470888 C48.0817431,30.1897272 48.1237443,30.1351257 48.1694655,30.0838842 C48.3579908,29.7949162 48.5462761,29.5059481 48.7096006,29.2171 C48.7440416,29.1568583 48.7734424,29.0938566 48.7975631,29.0286947 C48.9356869,28.7650474 49.0487301,28.5136404 49.1617733,28.249993 C49.2432555,28.1041889 49.3145375,27.9532247 49.3753792,27.7978204 C49.3753792,27.7978204 49.3753792,27.6973776 49.3753792,27.6344958 C49.4597416,27.391489 49.5310236,27.1440421 49.5888652,26.8933551 C49.5888652,26.7301505 49.7019084,26.5543456 49.7271091,26.3910211 C49.7521898,26.2278165 49.7271091,26.3031786 49.7271091,26.2528972 C49.7271091,25.9891298 49.7897508,25.7252425 49.8149515,25.4615951 C49.8400322,25.1977077 49.8149515,25.1223456 49.8149515,24.9591411 C49.8211917,24.883899 49.8211917,24.8081768 49.8149515,24.7330547 L49.8149515,14.4961687 C49.8623528,14.7496158 49.8958338,15.005343 49.9153943,15.2623902 Z" id="路径"></path>
                    <path d="M49.9843093,14.53961 C50.0064769,6.5482147 38.8394449,0.0387048461 25.0418194,0 C11.244314,-0.0383541067 0.0411009683,6.40868681 0.0187469674,14.4000461 C-0.00353187864,22.3913093 11.1635517,28.9008912 24.9610572,28.939585 C38.7586826,28.9780533 49.9618356,22.5309932 49.9843093,14.53961 Z" id="路径" fill-opacity="0.2" fill="#4FE117" fill-rule="nonzero"></path>
                </g>
                <g id="编组" transform="translate(7.000000, 2.000000)">
                    <path d="M49.9153943,25.9408885 C49.9153943,26.2046559 49.9153943,26.4683032 49.8275519,26.7321906 C49.7849507,26.9485566 49.7304692,27.1624026 49.6642273,27.3727685 C49.6063857,27.6234555 49.5351037,27.8707824 49.4507413,28.1137892 C49.3753792,28.3273952 49.2874168,28.5282808 49.1994543,28.7292864 C49.1116119,28.930172 48.973368,29.2442208 48.8352441,29.5079881 C48.6970003,29.7717555 48.4333529,30.2114478 48.1946662,30.5631776 L48.0690227,30.7263822 C47.8155757,31.0841122 47.543048,31.4279218 47.2525199,31.756371 L47.0893154,31.8944948 C46.7627862,32.2462246 46.4110564,32.5853541 46.0342459,32.9244836 C45.6574354,33.2636131 45.5317919,33.3515755 45.2681445,33.5650615 L44.5646848,34.1177969 C44.2883171,34.3186825 43.9743883,34.5196882 43.6728199,34.7079734 C43.3713715,34.8964987 43.0574427,35.122585 42.7183133,35.3234706 C41.957612,35.7636429 41.1733901,36.161934 40.3694876,36.5167839 L39.6535476,36.8182324 C39.0128497,37.0819997 38.3973525,37.3332868 37.6940129,37.5592531 L36.9655925,37.8105401 L35.7095174,38.1747503 C35.3828683,38.2627127 35.0563392,38.3631555 34.7298101,38.4385176 C34.4031609,38.5138797 33.8128645,38.6395232 33.3482115,38.7399661 L32.4061852,38.9283713 C31.4640388,39.0915759 30.5220125,39.2172194 29.5675059,39.3176622 L28.6756409,39.3931443 C28.1104251,39.3931443 27.5578097,39.4809868 26.9924739,39.5061875 L25.8997234,39.5061875 L24.5055244,39.5061875 L23.3624925,39.5061875 L22.1065374,39.4308254 L20.9384248,39.4308254 C20.5238132,39.4308254 20.1094416,39.3428629 19.6823497,39.2801011 C19.2552578,39.2172194 18.941329,39.1796583 18.5645185,39.1293769 L17.3083234,38.9032906 L16.1904921,38.6646039 C15.6755578,38.5515608 15.1605034,38.4134369 14.645569,38.2877934 L13.7915051,38.0492268 C12.8745595,37.7853394 11.9702142,37.483891 11.10355,37.1447615 C10.6764821,36.9815569 10.2619665,36.7931517 9.84746293,36.6046264 L9.20688504,36.3283787 C8.57887149,36.0269303 7.95083394,35.7128815 7.3730538,35.373752 C2.44934025,32.5350727 -0.0125129295,28.7921681 0,25.0741043 L0,35.3109903 C0,39.0790955 2.512138,42.7718387 7.3730538,45.610518 C7.9633983,45.9497675 8.62910489,46.2638162 9.20688504,46.5651447 L9.84746293,46.8539927 C10.2242855,47.0173173 10.5885076,47.1932422 10.9779065,47.3439664 L11.1160304,47.3439664 C11.9534138,47.687176 12.8452787,47.9886244 13.7915051,48.2481917 C13.8648272,48.2790325 13.9404293,48.3042333 14.0175914,48.3235538 L14.645569,48.4868784 C15.1605034,48.6250022 15.6755578,48.7506457 16.2030925,48.8636889 L16.6175841,48.9642517 L17.2329613,49.0772948 L18.5645185,49.3033812 L19.0920532,49.3912236 L19.6823497,49.4665857 L20.9384248,49.6048296 L21.5412016,49.6048296 L22.0940571,49.6048296 L23.3500122,49.6801917 L23.9905901,49.6801917 L26.5027402,49.6801917 L26.9046315,49.6801917 C27.4740474,49.6801917 28.0392632,49.6425106 28.6002788,49.5671485 L29.2785378,49.5671485 L29.4795434,49.5671485 C30.4466504,49.4665857 31.3886767,49.3284619 32.3308231,49.1651373 L32.5191083,49.1651373 L33.3230108,48.9893324 C33.7751834,48.8888896 34.2398364,48.8009271 34.692129,48.687884 C35.1443017,48.5748408 35.3577876,48.5120791 35.6843167,48.4241166 C36.0109659,48.3362741 36.550981,48.1980303 36.9403918,48.0599064 L37.2167596,47.9845443 L37.6564518,47.8087394 C38.3347108,47.5826531 38.987769,47.3439664 39.6283469,47.0675987 L40.3318066,46.7661503 C41.1397892,46.4113004 41.9282112,46.0130092 42.6931125,45.5729569 L42.994561,45.397032 C43.2332476,45.2589082 43.4216529,45.108184 43.6477392,44.9574598 C43.8738255,44.8067355 44.2632364,44.5680489 44.5394841,44.3670433 C44.8158519,44.1660376 45.0042571,44.0028331 45.2429438,43.8144278 C45.4815104,43.6260226 45.7704785,43.3999362 46.0090452,43.1864503 C46.0564465,43.1372489 46.1068479,43.0911676 46.1597694,43.0482064 C46.4727381,42.7625984 46.7704665,42.46079 47.0516343,42.1438611 L47.2274392,41.9554559 L47.7046926,41.3902401 C47.8303361,41.2395159 47.9308989,41.0761913 48.043942,40.9254671 C48.0817431,40.8681055 48.1237443,40.813624 48.1694655,40.7622626 C48.3579908,40.4732945 48.5462761,40.1844464 48.7096006,39.8955983 C48.7440416,39.8352367 48.7734424,39.7723549 48.7975631,39.7070731 C48.9356869,39.4434257 49.0487301,39.1921387 49.1617733,38.9283713 C49.2432555,38.7826872 49.3145375,38.631603 49.3753792,38.4761987 C49.3753792,38.4761987 49.3753792,38.3757559 49.3753792,38.3128741 C49.4597416,38.0698673 49.5310236,37.8225404 49.5888652,37.5718534 C49.5888652,37.4086489 49.7019084,37.2327239 49.7271091,37.0693994 C49.7521898,36.9061948 49.7271091,36.9815569 49.7271091,36.9312755 C49.7271091,36.6675082 49.7897508,36.4037408 49.8149515,36.1399734 C49.8400322,35.876206 49.8149515,35.8008439 49.8149515,35.6375194 C49.8211917,35.5622773 49.8211917,35.4866752 49.8149515,35.4115531 L49.8149515,25.1746671 C49.8623528,25.4279942 49.8958338,25.6838413 49.9153943,25.9408885 Z" id="路径"></path>
                    <path d="M49.9153943,36.2606968 C49.9153943,36.5244642 49.9153943,36.7882315 49.8275519,37.0519989 C49.7849507,37.2683649 49.7304692,37.4822109 49.6642273,37.6925768 C49.6063857,37.9432638 49.5351037,38.1907107 49.4507413,38.4335975 C49.3753792,38.6472035 49.2874168,38.8480891 49.1994543,39.0490947 C49.1116119,39.2499803 48.973368,39.5641491 48.8352441,39.8277964 C48.6970003,40.0915638 48.4333529,40.5312561 48.1946662,40.8829859 L48.0690227,41.0461905 C47.8155757,41.4039205 47.543048,41.7477301 47.2525199,42.0761793 L47.0893154,42.2143031 C46.7627862,42.5660329 46.4110564,42.9051624 46.0342459,43.2442919 C45.6574354,43.5834214 45.5317919,43.6713838 45.2681445,43.8848698 L44.5646848,44.4376052 C44.2883171,44.6384908 43.9743883,44.8394965 43.6728199,45.0279017 C43.3713715,45.216307 43.0574427,45.4423933 42.7183133,45.6433989 C41.957612,46.0834512 41.1733901,46.4817423 40.3694876,46.8365923 L39.6535476,47.1380407 C39.0128497,47.401808 38.3973525,47.6530951 37.6940129,47.8791814 L36.9655925,48.1303484 L35.7095174,48.4946786 C35.3828683,48.582521 35.0563392,48.6829638 34.7298101,48.7583259 C34.4031609,48.833688 33.8128645,48.9593316 33.3482115,49.0597744 L32.4061852,49.2481796 C31.4640388,49.4115042 30.5220125,49.5370277 29.5675059,49.6374705 L28.6756409,49.7129526 C28.1104251,49.7129526 27.5578097,49.8009151 26.9924739,49.8259958 L25.8997234,49.8259958 L24.5055244,49.8259958 L23.3624925,49.8259958 L22.1065374,49.7506337 L20.9384248,49.7506337 C20.5238132,49.7506337 20.1094416,49.6626712 19.6823497,49.5999095 C19.2552578,49.5370277 18.941329,49.4994666 18.5645185,49.4491852 L17.3083234,49.2230989 L16.1904921,48.9844123 C15.6755578,48.8713691 15.1605034,48.7332452 14.645569,48.6076017 L13.7915051,48.3690351 C12.8745595,48.1052677 11.9702142,47.8038193 11.10355,47.4645698 C10.6764821,47.3013652 10.2619665,47.11296 9.84746293,46.9244347 L9.20688504,46.648187 C8.57887149,46.3467386 7.95083394,46.0328098 7.3730538,45.6935603 C2.44934025,42.854881 -0.0125129295,39.1119764 0,35.3939126 L0,45.6307986 C0,49.3989038 2.512138,53.091647 7.3730538,55.9303263 C7.9633983,56.2695758 8.62910489,56.5836246 9.20688504,56.885073 L9.84746293,57.173801 C10.2242855,57.3371256 10.5885076,57.5130505 10.9779065,57.6637747 L11.1160304,57.6637747 C11.9534138,58.0071043 12.8452787,58.3084327 13.7915051,58.568 C13.8648272,58.5988409 13.9404293,58.6240416 14.0175914,58.6433621 L14.645569,58.8068067 C15.1605034,58.9448105 15.6755578,59.070454 16.2030925,59.1834972 L16.6175841,59.28406 L17.2329613,59.3971032 L18.5645185,59.6231895 L19.0920532,59.7110319 L19.6823497,59.786394 L20.9384248,59.9246379 L21.5412016,59.9246379 L22.0940571,59.9246379 L23.3500122,60 L23.9905901,60 L26.5027402,60 L26.9046315,60 C27.4740474,60 28.0392632,59.9623189 28.6002788,59.8869568 L29.2785378,59.8869568 L29.4795434,59.8869568 C30.4466504,59.786394 31.3886767,59.6482702 32.3308231,59.4849456 L32.5191083,59.4849456 L33.3230108,59.3091407 C33.7751834,59.2086979 34.2398364,59.1207354 34.692129,59.0076923 C35.1443017,58.8946491 35.3577876,58.8318874 35.6843167,58.7439249 C36.0109659,58.6560825 36.550981,58.5178386 36.9403918,58.3797147 L37.2167596,58.3043526 L37.6564518,58.1285477 C38.3347108,57.9024614 38.987769,57.6637747 39.6283469,57.387407 L40.3318066,57.0859586 C41.1397892,56.7311087 41.9282112,56.3328175 42.6931125,55.8927653 L42.994561,55.7168403 C43.2332476,55.5787165 43.4216529,55.4279923 43.6477392,55.2772681 C43.8738255,55.1265438 44.2632364,54.8878572 44.5394841,54.6868516 C44.8158519,54.4858459 45.0042571,54.3226414 45.2429438,54.1342361 C45.4815104,53.9458309 45.7704785,53.7197445 46.0090452,53.5062586 C46.0564465,53.4570572 46.1068479,53.4109759 46.1597694,53.3680147 C46.4727381,53.0825267 46.7704665,52.7805983 47.0516343,52.4636695 L47.2274392,52.2752642 L47.7046926,51.7100484 C47.8303361,51.5593242 47.9308989,51.3959996 48.043942,51.2452754 C48.0817431,51.1879138 48.1237443,51.1334323 48.1694655,51.0820709 C48.3579908,50.7931028 48.5462761,50.5042547 48.7096006,50.2154066 C48.7440416,50.155045 48.7734424,50.0921632 48.7975631,50.0270014 C48.9356869,49.763234 49.0487301,49.511947 49.1617733,49.2481796 C49.2432555,49.1024956 49.3145375,48.9514113 49.3753792,48.796007 C49.3753792,48.796007 49.3753792,48.6955642 49.3753792,48.6326824 C49.4597416,48.3896756 49.5310236,48.1423487 49.5888652,47.8916617 C49.5888652,47.7284572 49.7019084,47.5525323 49.7271091,47.3892077 C49.7521898,47.2260031 49.7271091,47.3013652 49.7271091,47.2510838 C49.7271091,46.9873165 49.7897508,46.7235491 49.8149515,46.4597817 C49.8400322,46.1960144 49.8149515,46.1206522 49.8149515,45.9574477 C49.8211917,45.8820856 49.8211917,45.8064835 49.8149515,45.7313614 L49.8149515,35.4944754 C49.8623528,35.7479225 49.8958338,36.0036496 49.9153943,36.2606968 Z" id="路径"></path>
                    <path d="M49.9153943,15.2623902 C49.9153943,15.5262775 49.9153943,15.7899249 49.8275519,16.0536923 C49.7849507,16.2700583 49.7304692,16.4839043 49.6642273,16.6943902 C49.6063857,16.9450772 49.5351037,17.1924041 49.4507413,17.4352909 C49.3753792,17.6488968 49.2874168,17.8499024 49.1994543,18.0507881 C49.1116119,18.2517937 48.973368,18.5658424 48.8352441,18.8296098 C48.6970003,19.0933772 48.4333529,19.5330695 48.1946662,19.8846793 L48.0690227,20.0478838 C47.8155757,20.4056138 47.543048,20.7495435 47.2525199,21.0779926 L47.0893154,21.2161165 C46.7627862,21.5677263 46.4110564,21.9069758 46.0342459,22.2461053 C45.6574354,22.5851147 45.5317919,22.6730772 45.2681445,22.8865632 L44.5646848,23.4392986 C44.2883171,23.6403042 43.9743883,23.8413098 43.6728199,24.0295951 C43.3713715,24.2181204 43.0574427,24.4440867 42.7183133,24.6450923 C41.957612,25.0851446 41.1733901,25.4834357 40.3694876,25.8384056 L39.6535476,26.139854 C39.0128497,26.4036214 38.3973525,26.6547884 37.6940129,26.8808747 L36.9655925,27.1320418 L35.7095174,27.4963719 C35.3828683,27.5842144 35.0563392,27.6847772 34.7298101,27.7601393 C34.4031609,27.8355014 33.8128645,27.9610249 33.3482115,28.0615877 L32.4061852,28.249993 C31.4640388,28.4131976 30.5220125,28.5388411 29.5675059,28.6392839 L28.6756409,28.714766 C28.1104251,28.714766 27.5578097,28.8026084 26.9924739,28.8276891 L25.8997234,28.8276891 L24.5055244,28.8276891 L23.3624925,28.8276891 L22.1065374,28.752327 L20.9384248,28.752327 C20.5238132,28.752327 20.1094416,28.6643646 19.6823497,28.6016028 C19.2552578,28.5388411 18.941329,28.50116 18.5645185,28.4509986 L17.3083234,28.2249123 L16.1904921,27.9862256 C15.6755578,27.8731825 15.1605034,27.7349386 14.645569,27.6094151 L13.7915051,27.3707284 C12.8745595,27.1069611 11.9702142,26.8055126 11.10355,26.4663832 C10.6764821,26.3031786 10.2619665,26.1146533 9.84746293,25.9262481 L9.20688504,25.6498804 C8.57887149,25.3484319 7.95083394,25.0345032 7.3730538,24.6953737 C2.44934025,21.8566944 -0.0125129295,18.1136698 0,14.3957259 L0,24.6326119 C0,28.4007172 2.512138,32.0934604 7.3730538,34.9321397 C7.9633983,35.2712691 8.62910489,35.5853179 9.20688504,35.8867663 L9.84746293,36.1756144 C10.2242855,36.338939 10.5885076,36.5147439 10.9779065,36.6654681 L11.1160304,36.6654681 C11.9534138,37.0087977 12.8452787,37.3102461 13.7915051,37.5698134 C13.8648272,37.6005342 13.9404293,37.6257349 14.0175914,37.6451755 L14.645569,37.8085 C15.1605034,37.9466239 15.6755578,38.0722674 16.2030925,38.1853106 L16.6175841,38.2857534 L17.2329613,38.3989165 L18.5645185,38.6250028 L19.0920532,38.7128453 L19.6823497,38.7882074 L20.9384248,38.9264513 L21.5412016,38.9264513 L22.0940571,38.9264513 L23.3500122,39.0018134 L23.9905901,39.0018134 L26.5027402,39.0018134 L26.9046315,39.0018134 C27.4740474,39.0018134 28.0392632,38.9640123 28.6002788,38.8886502 L29.2785378,38.8886502 L29.4795434,38.8886502 C30.4466504,38.7882074 31.3886767,38.6500835 32.3308231,38.486759 L32.5191083,38.486759 L33.3230108,38.3109541 C33.7751834,38.2103913 34.2398364,38.1224288 34.692129,38.0095056 C35.1443017,37.8963425 35.3577876,37.8335807 35.6843167,37.7456183 C36.0109659,37.6577758 36.550981,37.519532 36.9403918,37.3815281 L37.2167596,37.306166 L37.6564518,37.1302411 C38.3347108,36.9041548 38.987769,36.6654681 39.6283469,36.3892204 L40.3318066,36.087772 C41.1397892,35.732922 41.9282112,35.3345109 42.6931125,34.8944586 L42.994561,34.7186537 C43.2332476,34.5804098 43.4216529,34.4296856 43.6477392,34.2789614 C43.8738255,34.1282372 44.2632364,33.8895505 44.5394841,33.6886649 C44.8158519,33.4876593 45.0042571,33.3244548 45.2429438,33.1359295 C45.4815104,32.9476442 45.7704785,32.7215579 46.0090452,32.5079519 C46.0564465,32.4587506 46.1068479,32.4126693 46.1597694,32.3697081 C46.4727381,32.0842201 46.7704665,31.7824117 47.0516343,31.4654828 L47.2274392,31.2769576 L47.7046926,30.7118618 C47.8303361,30.5611376 47.9308989,30.397813 48.043942,30.2470888 C48.0817431,30.1897272 48.1237443,30.1351257 48.1694655,30.0838842 C48.3579908,29.7949162 48.5462761,29.5059481 48.7096006,29.2171 C48.7440416,29.1568583 48.7734424,29.0938566 48.7975631,29.0286947 C48.9356869,28.7650474 49.0487301,28.5136404 49.1617733,28.249993 C49.2432555,28.1041889 49.3145375,27.9532247 49.3753792,27.7978204 C49.3753792,27.7978204 49.3753792,27.6973776 49.3753792,27.6344958 C49.4597416,27.391489 49.5310236,27.1440421 49.5888652,26.8933551 C49.5888652,26.7301505 49.7019084,26.5543456 49.7271091,26.3910211 C49.7521898,26.2278165 49.7271091,26.3031786 49.7271091,26.2528972 C49.7271091,25.9891298 49.7897508,25.7252425 49.8149515,25.4615951 C49.8400322,25.1977077 49.8149515,25.1223456 49.8149515,24.9591411 C49.8211917,24.883899 49.8211917,24.8081768 49.8149515,24.7330547 L49.8149515,14.4961687 C49.8623528,14.7496158 49.8958338,15.005343 49.9153943,15.2623902 Z" id="路径"></path>
                    <path d="M49.9843093,14.53961 C50.0064769,6.5482147 38.8394449,0.0387048461 25.0418194,0 C11.244314,-0.0383541067 0.0411009683,6.40868681 0.0187469674,14.4000461 C-0.00353187864,22.3913093 11.1635517,28.9008912 24.9610572,28.939585 C38.7586826,28.9780533 49.9618356,22.5309932 49.9843093,14.53961 Z" id="路径" fill-opacity="0.2" fill="#4FE117" fill-rule="nonzero"></path>
                </g>
            </g>
        </g>
    </g>
</svg>
