<?xml version="1.0" encoding="UTF-8"?>
<svg width="64px" height="65px" viewBox="0 0 64 65" version="1.1" xmlns="http://www.w3.org/2000/svg" xmlns:xlink="http://www.w3.org/1999/xlink">
    <title>icon3</title>
    <defs>
        <rect id="path-1" x="0" y="0" width="350" height="270" rx="30"></rect>
    </defs>
    <g id="页面-1" stroke="none" stroke-width="1" fill="none" fill-rule="evenodd">
        <g id="特点" transform="translate(-583.000000, -403.000000)">
            <rect fill="#none" x="0" y="0" width="1668" height="1081"></rect>
            <g id="编组-45备份-2" transform="translate(440.000000, 364.000000)">
                <mask id="mask-2" fill="white">
                    <use xlink:href="#path-1"></use>
                </mask>
                <rect stroke-opacity="0.2" stroke="#FFFFFF" x="0.5" y="0.5" width="349" height="269" rx="30"></rect>
            </g>
            <g id="response" transform="translate(583.000000, 403.910000)">
                <path d="M18.9393656,63 L28.7925195,40.010928 C28.9109399,39.7335389 28.9589281,39.4309777 28.931896,39.1305245 C28.9051119,38.8301953 28.8040515,38.5410262 28.6381388,38.2890572 C28.4721022,38.0372121 28.2462973,37.8302553 27.9809362,37.6869107 C27.7154512,37.5434422 27.418718,37.4680499 27.1170248,37.4674299 L19.9120379,37.4674299 C19.6094147,37.4685459 19.3111687,37.3942696 19.0445429,37.251297 C18.7777806,37.1083244 18.5509093,36.9011196 18.3843394,36.6482826 C18.2177696,36.3956936 18.116858,36.1054084 18.0905947,35.8039632 C18.0644553,35.502394 18.1136959,35.1992128 18.2341872,34.9214517 L29.3955339,9.38896836 C29.5373904,9.06385146 29.7710074,8.78725595 30.0676166,8.59283557 C30.3644737,8.39855159 30.7113031,8.29471358 31.0660686,8.29471358 L49.7898954,8.29471358 C50.1335008,8.29471358 50.4700382,8.39197957 50.7609433,8.5750911 C51.0516005,8.75819023 51.2848454,9.01959568 51.433522,9.32938612 C51.5820746,9.63918896 51.6403549,9.98460474 51.6011707,10.3260153 C51.5619865,10.6674135 51.427322,10.9908316 51.2124291,11.2589206 L41.3641857,23.5704463 C41.1499129,23.8387834 41.0157444,24.1621766 40.9770562,24.503426 C40.938492,24.8445514 40.9970203,25.1896448 41.1458209,25.49915 C41.2947455,25.8085312 41.5279904,26.0696763 41.8186476,26.252453 C42.1094287,26.4352297 42.4457181,26.5321981 42.7891994,26.5321981 L51.0130363,26.5321981 C51.3740018,26.5320741 51.7269072,26.6389626 52.0271124,26.8395954 C52.3271936,27.0401042 52.5610585,27.3251813 52.6990711,27.6587426 C52.8370836,27.992304 52.8730438,28.3592214 52.8022395,28.7133669 C52.7315592,29.0672643 52.5574625,29.3922696 52.3018975,29.6472146 L18.9393656,63 Z" id="路径" fill-opacity="0.2" fill="#4FE117" fill-rule="nonzero"></path>
                <path d="M12.8555913,55.7052988 L22.7087079,32.7162269 C22.8271408,32.4388378 22.8751662,32.1362765 22.8481713,31.8358233 C22.8213004,31.5353701 22.7202648,31.246325 22.5543025,30.994356 C22.3883402,30.742511 22.1625601,30.5355541 21.8971495,30.3922096 C21.6317264,30.248741 21.3349436,30.1733487 21.0333,30.1727287 L13.8282636,30.1727287 C13.5256404,30.1738447 13.2273944,30.0995684 12.9607685,29.9565958 C12.6940063,29.8136233 12.467135,29.6064184 12.3005651,29.3535814 C12.1339952,29.1009924 12.0330836,28.8107072 12.0068203,28.509262 C11.9806798,28.2076928 12.0299216,27.9045116 12.1504129,27.6267505 L23.3118215,2.09425478 C23.4536781,1.76916268 23.687171,1.49249277 23.9839042,1.29814679 C24.2806374,1.10380082 24.6275908,1 24.9823562,1 L43.7061831,1 C44.0497885,1 44.3863258,1.09731559 44.677107,1.28036512 C44.9678882,1.46342705 45.2010091,1.7249069 45.3496857,2.03468494 C45.4983623,2.34447538 45.5565185,2.68995316 45.5174584,3.03131413 C45.4782742,3.37268749 45.3434857,3.69606838 45.1287168,3.96420706 L35.2804734,16.2757451 C35.0660766,16.5440822 34.932032,16.8674755 34.8933439,17.2086008 C34.8547797,17.5498502 34.9133079,17.8949436 35.0621085,18.2044488 C35.2110331,18.5138301 35.4441541,18.7749751 35.7349352,18.9577518 C36.0255924,19.1405286 36.3618817,19.2374969 36.7053631,19.2374969 L44.929324,19.2374969 C45.2902895,19.2373729 45.6430709,19.3442614 45.9432761,19.5448942 C46.2433573,19.745403 46.4773462,20.0304801 46.6153588,20.3640415 C46.7532473,20.6976028 46.7893314,21.0645203 46.7185272,21.4185417 C46.6477229,21.7725631 46.4736262,22.0975684 46.2180612,22.3525134 L12.8555913,55.7052988 Z" id="路径" stroke="#4FE117" stroke-width="2" stroke-linejoin="round"></path>
            </g>
            <g id="response" transform="translate(583.000000, 403.910000)">
                <path d="M18.9393656,63 L28.7925195,40.010928 C28.9109399,39.7335389 28.9589281,39.4309777 28.931896,39.1305245 C28.9051119,38.8301953 28.8040515,38.5410262 28.6381388,38.2890572 C28.4721022,38.0372121 28.2462973,37.8302553 27.9809362,37.6869107 C27.7154512,37.5434422 27.418718,37.4680499 27.1170248,37.4674299 L19.9120379,37.4674299 C19.6094147,37.4685459 19.3111687,37.3942696 19.0445429,37.251297 C18.7777806,37.1083244 18.5509093,36.9011196 18.3843394,36.6482826 C18.2177696,36.3956936 18.116858,36.1054084 18.0905947,35.8039632 C18.0644553,35.502394 18.1136959,35.1992128 18.2341872,34.9214517 L29.3955339,9.38896836 C29.5373904,9.06385146 29.7710074,8.78725595 30.0676166,8.59283557 C30.3644737,8.39855159 30.7113031,8.29471358 31.0660686,8.29471358 L49.7898954,8.29471358 C50.1335008,8.29471358 50.4700382,8.39197957 50.7609433,8.5750911 C51.0516005,8.75819023 51.2848454,9.01959568 51.433522,9.32938612 C51.5820746,9.63918896 51.6403549,9.98460474 51.6011707,10.3260153 C51.5619865,10.6674135 51.427322,10.9908316 51.2124291,11.2589206 L41.3641857,23.5704463 C41.1499129,23.8387834 41.0157444,24.1621766 40.9770562,24.503426 C40.938492,24.8445514 40.9970203,25.1896448 41.1458209,25.49915 C41.2947455,25.8085312 41.5279904,26.0696763 41.8186476,26.252453 C42.1094287,26.4352297 42.4457181,26.5321981 42.7891994,26.5321981 L51.0130363,26.5321981 C51.3740018,26.5320741 51.7269072,26.6389626 52.0271124,26.8395954 C52.3271936,27.0401042 52.5610585,27.3251813 52.6990711,27.6587426 C52.8370836,27.992304 52.8730438,28.3592214 52.8022395,28.7133669 C52.7315592,29.0672643 52.5574625,29.3922696 52.3018975,29.6472146 L18.9393656,63 Z" id="路径" fill-opacity="0.2" fill="#4FE117" fill-rule="nonzero"></path>
                <path d="M12.8555913,55.7052988 L22.7087079,32.7162269 C22.8271408,32.4388378 22.8751662,32.1362765 22.8481713,31.8358233 C22.8213004,31.5353701 22.7202648,31.246325 22.5543025,30.994356 C22.3883402,30.742511 22.1625601,30.5355541 21.8971495,30.3922096 C21.6317264,30.248741 21.3349436,30.1733487 21.0333,30.1727287 L13.8282636,30.1727287 C13.5256404,30.1738447 13.2273944,30.0995684 12.9607685,29.9565958 C12.6940063,29.8136233 12.467135,29.6064184 12.3005651,29.3535814 C12.1339952,29.1009924 12.0330836,28.8107072 12.0068203,28.509262 C11.9806798,28.2076928 12.0299216,27.9045116 12.1504129,27.6267505 L23.3118215,2.09425478 C23.4536781,1.76916268 23.687171,1.49249277 23.9839042,1.29814679 C24.2806374,1.10380082 24.6275908,1 24.9823562,1 L43.7061831,1 C44.0497885,1 44.3863258,1.09731559 44.677107,1.28036512 C44.9678882,1.46342705 45.2010091,1.7249069 45.3496857,2.03468494 C45.4983623,2.34447538 45.5565185,2.68995316 45.5174584,3.03131413 C45.4782742,3.37268749 45.3434857,3.69606838 45.1287168,3.96420706 L35.2804734,16.2757451 C35.0660766,16.5440822 34.932032,16.8674755 34.8933439,17.2086008 C34.8547797,17.5498502 34.9133079,17.8949436 35.0621085,18.2044488 C35.2110331,18.5138301 35.4441541,18.7749751 35.7349352,18.9577518 C36.0255924,19.1405286 36.3618817,19.2374969 36.7053631,19.2374969 L44.929324,19.2374969 C45.2902895,19.2373729 45.6430709,19.3442614 45.9432761,19.5448942 C46.2433573,19.745403 46.4773462,20.0304801 46.6153588,20.3640415 C46.7532473,20.6976028 46.7893314,21.0645203 46.7185272,21.4185417 C46.6477229,21.7725631 46.4736262,22.0975684 46.2180612,22.3525134 L12.8555913,55.7052988 Z" id="路径" stroke="#4FE117" stroke-width="2" stroke-linejoin="round"></path>
            </g>
        </g>
    </g>
</svg>
