<?xml version="1.0" encoding="UTF-8"?>
<svg width="64px" height="65px" viewBox="0 0 64 65" version="1.1" xmlns="http://www.w3.org/2000/svg" xmlns:xlink="http://www.w3.org/1999/xlink">
    <title>icon2</title>
    <defs>
        <rect id="path-1" x="0" y="0" width="350" height="270" rx="30"></rect>
    </defs>
    <g id="页面-1" stroke="none" stroke-width="1" fill="none" fill-rule="evenodd">
        <g id="特点" transform="translate(-197.000000, -700.000000)">
            <rect fill="#none" x="0" y="0" width="1668" height="1081"></rect>
            <g id="编组-45备份-3" transform="translate(54.000000, 661.000000)">
                <mask id="mask-2" fill="white">
                    <use xlink:href="#path-1"></use>
                </mask>
                <rect stroke-opacity="0.2" stroke="#FFFFFF" x="0.5" y="0.5" width="349" height="269" rx="30"></rect>
            </g>
            <g id="编组-9备份-3" transform="translate(197.000000, 700.910000)">
                <g id="rqs">
                    <path d="M50.5997765,38.2001737 L50.5997765,58.8667576 C50.5997765,59.9629373 50.1642807,61.0142283 49.3891428,61.7893662 C48.6140048,62.5645042 47.5628379,63 46.4665342,63 L5.13331678,63 C4.03716185,63 2.98577173,62.5645042 2.21062139,61.7893662 C1.43547104,61.0142283 1,59.9629373 1,58.8667576 L1,17.5335898 C1,16.4372861 1.43547104,15.3859952 2.21062139,14.6108572 C2.98577173,13.8355953 4.03716185,13.4002235 5.13331678,13.4002235 L25.7999503,13.4002235" id="路径" fill-opacity="0.2" fill="#4FE117" fill-rule="nonzero"></path>
                    <path d="M50.5997765,38.2001737 L50.5997765,58.8667576 C50.5997765,59.9629373 50.1642807,61.0142283 49.3891428,61.7893662 C48.6140048,62.5645042 47.5627139,63 46.4665342,63 L5.13331678,63 C4.03716185,63 2.98577173,62.5645042 2.21062139,61.7893662 C1.43547104,61.0142283 1,59.9629373 1,58.8667576 L1,17.5335898 C1,16.4372861 1.43547104,15.3859952 2.21062139,14.6108572 C2.98577173,13.8355953 4.03716185,13.4002235 5.13331678,13.4002235 L25.7999503,13.4002235" id="路径" stroke="#4FE117" stroke-width="2" stroke-linecap="round" stroke-linejoin="round"></path>
                    <path d="M62.8051922,1.16657251 C60.7536993,0.944475831 58.684226,0.944475831 56.6327331,1.16657251 L51.1215779,9.92920259 L47.7294969,3.62176709 C35.4398837,9.65089198 30.6452135,24.2277263 35.1862992,28.7798482 C41.289813,34.8862141 65.4201512,24.1918896 62.8051922,1.16657251 Z" id="路径" stroke="#4FE117" stroke-width="2" stroke-linecap="round" stroke-linejoin="round"></path>
                    <path d="M29.1911633,34.7777121 L45.2669366,18.7018149 L29.1911633,34.7777121 Z" id="路径" fill="#326E52" fill-rule="nonzero"></path>
                    <line x1="29.1911633" y1="34.7777121" x2="45.2669366" y2="18.7018149" id="路径" stroke="#4FE117" stroke-width="2" stroke-linecap="round" stroke-linejoin="round"></line>
                </g>
                <g id="rqs">
                    <path d="M50.5997765,38.2001737 L50.5997765,58.8667576 C50.5997765,59.9629373 50.1642807,61.0142283 49.3891428,61.7893662 C48.6140048,62.5645042 47.5628379,63 46.4665342,63 L5.13331678,63 C4.03716185,63 2.98577173,62.5645042 2.21062139,61.7893662 C1.43547104,61.0142283 1,59.9629373 1,58.8667576 L1,17.5335898 C1,16.4372861 1.43547104,15.3859952 2.21062139,14.6108572 C2.98577173,13.8355953 4.03716185,13.4002235 5.13331678,13.4002235 L25.7999503,13.4002235" id="路径" fill-opacity="0.2" fill="#4FE117" fill-rule="nonzero"></path>
                    <path d="M50.5997765,38.2001737 L50.5997765,58.8667576 C50.5997765,59.9629373 50.1642807,61.0142283 49.3891428,61.7893662 C48.6140048,62.5645042 47.5627139,63 46.4665342,63 L5.13331678,63 C4.03716185,63 2.98577173,62.5645042 2.21062139,61.7893662 C1.43547104,61.0142283 1,59.9629373 1,58.8667576 L1,17.5335898 C1,16.4372861 1.43547104,15.3859952 2.21062139,14.6108572 C2.98577173,13.8355953 4.03716185,13.4002235 5.13331678,13.4002235 L25.7999503,13.4002235" id="路径" stroke="#4FE117" stroke-width="2" stroke-linecap="round" stroke-linejoin="round"></path>
                    <path d="M62.8051922,1.16657251 C60.7536993,0.944475831 58.684226,0.944475831 56.6327331,1.16657251 L51.1215779,9.92920259 L47.7294969,3.62176709 C35.4398837,9.65089198 30.6452135,24.2277263 35.1862992,28.7798482 C41.289813,34.8862141 65.4201512,24.1918896 62.8051922,1.16657251 Z" id="路径" stroke="#4FE117" stroke-width="2" stroke-linecap="round" stroke-linejoin="round"></path>
                    <path d="M29.1911633,34.7777121 L45.2669366,18.7018149 L29.1911633,34.7777121 Z" id="路径" fill="#326E52" fill-rule="nonzero"></path>
                    <line x1="29.1911633" y1="34.7777121" x2="45.2669366" y2="18.7018149" id="路径" stroke="#4FE117" stroke-width="2" stroke-linecap="round" stroke-linejoin="round"></line>
                </g>
            </g>
        </g>
    </g>
</svg>
